<svg width="129" height="97" viewBox="0 0 129 97" fill="none" xmlns="http://www.w3.org/2000/svg">
<circle cx="63.8289" cy="48.3216" r="37.5" transform="rotate(-11.5153 63.8289 48.3216)" fill="#E1A652"/>
<path d="M116.791 37.7825C116.902 38.3271 116.79 39.6685 114.693 41.9587C112.67 44.1683 109.331 46.6373 104.727 49.1472C95.5657 54.1425 82.2157 58.859 66.8681 61.9858C51.5205 65.1126 37.3893 65.9947 27.0036 64.9819C21.7852 64.473 17.7465 63.5071 15.0199 62.2651C12.1941 60.9779 11.5661 59.7873 11.4551 59.2426C11.3441 58.698 11.4563 57.3566 13.5534 55.0665C15.5767 52.8568 18.9156 50.3878 23.519 47.8779C32.6807 42.8827 46.0307 38.1661 61.3783 35.0393C76.7258 31.9126 90.8571 31.0304 101.243 32.0432C106.461 32.5521 110.5 33.5181 113.226 34.76C116.052 36.0472 116.68 37.2379 116.791 37.7825Z" stroke="#F4F3F3" stroke-width="8"/>
<path d="M28.5146 35.6142L91.2937 22.8242L91.9334 23.4593L94.9865 27.1746L96.5653 29.9146L97.0099 30.8446L97.4545 31.7745L97.5044 32.0195L26.3665 46.5124L26.4096 44.9728L26.7906 41.8336L27.6116 38.3496L28.3873 35.8953L28.5146 35.6142Z" fill="#E1A652"/>
<path d="M42.5352 79.1875L82.7373 70.9971C84.3608 70.6664 85.945 71.7143 86.2758 73.3378C86.6065 74.9613 85.5585 76.5456 83.935 76.8763L51.1093 83.5639L49.4896 83.1285L46.6406 81.6679L44.0366 80.1573L43.1517 79.5722L42.5352 79.1875Z" fill="#CA813E"/>
<path d="M92.5352 24.1875L48.0238 33.2563C46.3963 33.5879 44.8076 32.5393 44.4729 30.9124C44.139 29.2899 45.1782 27.7024 46.7988 27.3593L86.9164 18.8661L87.5061 19.2562L88.7356 20.2815L89.6701 21.1116L90.9494 22.3818L91.9338 23.4569L92.5352 24.1875Z" fill="#CA813E"/>
<path d="M26.4502 52C26.0502 48 26.3326 47 26.4993 46.5L54.9521 39.5C45.6179 45.1667 26.8502 56 26.4502 52Z" fill="#E1A652"/>
<path d="M26.4844 52.8672L67.149 44.5826C68.7725 44.2518 70.3568 45.2998 70.6875 46.9233C71.0183 48.5468 69.9703 50.131 68.3468 50.4618L27.6822 58.7464L26.4844 52.8672Z" fill="#CA813E"/>
<path d="M95.5 31C96.163 31.9561 98.3614 36.8528 98.5 38C98.5535 38.4429 97.8826 36.0688 98 36.5C98.0406 36.6492 96.9903 36.8181 96.9996 36.9689C97.0086 37.1158 96.8735 36.7016 96.7861 36.5842C95.996 35.5235 95.3316 34.5504 94.1818 33.8362C93.3255 33.3043 92.5224 32.9811 91.5348 33.3585C90.5105 33.75 89.431 34.4303 88.6317 35.1947C88.6008 35.2242 87.8724 36.2326 88.3877 36.1748C89.1962 36.0842 90.1792 35.4186 90.7846 34.9218C91.0556 34.6994 91.4768 34.3045 91.4738 33.8796C91.4703 33.3805 90.8496 33.1292 90.4553 33.281C90.1032 33.4166 89.8952 33.7145 90.0405 34.1153C90.2477 34.6869 90.824 34.9485 91.3488 35.0986C91.892 35.2538 92.5322 35.299 93.0687 35.0675C93.4568 34.9001 93.4264 34.6813 93.0535 34.5465C92.5474 34.3635 91.7193 34.421 91.2421 34.4565C90.311 34.5257 89.6609 34.6521 88.7414 34.8163C87.3948 35.0568 86.0995 35.2642 84.7283 35.2505C83.0603 35.234 81.3884 35.0973 79.724 34.9869C79.0507 34.9422 78.3746 34.8782 77.6991 34.9062C76.7187 34.9469 75.8756 35.5315 75.11 36.0911C74.7601 36.3469 74.3674 36.5213 74 36.7455" stroke="#E1A652" stroke-width="3" stroke-linecap="round"/>
</svg>
